# xmcd
#
# Track frame offsets:
#	182
#	16185
#	31240
#	47025
#	59717
#	73250
#	86445
#	105685
#	121752
#	134365
#	147825
#	162167
#	179405
#	197280
#	209150
#	220762
#
# Disc length: 3204
#
# Revision: 5
# Processed by: cddbd v1.5.2PL0 Copyright (c) Steve Scherf et al.
# Submitted via: Broken Cross Disk Manager 3.94.2201
#
DISCID=e80c8210
DTITLE=Truck Stop - nicht zu bremsen
DYEAR=1993
DGENRE=country
TTITLE0=Ich möcht so gern Dave Dudley hör'n
TTITLE1=Easy rider
TTITLE2=Jeden Tag in einer anderen Stadt
TTITLE3=Wieder mal zu spät
TTITLE4=Take it easy, altes Haus
TTITLE5=Die Frau mit dem Gurt
TTITLE6=Lass mich geh'n
TTITLE7=Kopf oder Zahl
TTITLE8=Der wilde wilde Westen
TTITLE9=Cowboy bei der Bahn
TTITLE10=Angeln entspannt
TTITLE11=Old Texas Town, die Westernstadt 
TTITLE12=Amerika
TTITLE13=Ich pfeife auf die Autobahn
TTITLE14=Lass die Mädels wissen
TTITLE15=Nein danke, ich rauch nicht mehr
EXTD=
EXTT0=
EXTT1=
EXTT2=
EXTT3=
EXTT4=
EXTT5=
EXTT6=
EXTT7=
EXTT8=
EXTT9=
EXTT10=
EXTT11=
EXTT12=
EXTT13=
EXTT14=
EXTT15=
PLAYORDER=
